<svg xmlns="http://www.w3.org/2000/svg" x="0px" y="0px" viewBox="0 0 512 512" style="width: 256px; height: 256px; opacity: 1;">
    <g>
        <path class="st0" d="M34.209,152.142v208.084c0,16.773,8.802,32.311,23.186,40.947l174.048,104.392
            c5.832,3.496,12.207,5.628,18.717,6.434V260.777L38.007,133.524C35.543,139.325,34.209,145.64,34.209,152.142z" style="fill: rgb(61,110,218);"></path>
        <path class="st0" d="M473.993,133.524L265.864,258.366c-2.494,1.492-4.024,4.19-4.024,7.099V512
            c6.511-0.806,12.893-2.938,18.718-6.434l174.047-104.392c14.385-8.636,23.186-24.174,23.186-40.947V152.142
            C477.791,145.64,476.457,139.325,473.993,133.524z " style="fill: rgb(56,161,219);"></path>
        <path class="st0" d="M454.605,111.204L280.557,6.804C272.992,2.268,264.507,0,256.001,0c-8.508,0-16.992,2.268-24.557,6.796
            L57.395,111.204c-5.35,3.202-9.916,7.37-13.556,12.192l207.903,124.707c2.623,1.575,5.893,1.575,8.515,0l207.904-124.707
            C464.521,118.574,459.955,114.406,454.605,111.204z " style="fill: rgb(160, 216, 239);"></path>
        <text x="60" y="340" font-family="arial black" style="fill: rgb(240, 240, 250);stroke: rgb(187, 200, 230);" font-size="70">NO IMAGE</text>
    </g>
</svg>
